<?xml version="1.0" encoding="UTF-8"?>
<!DOCTYPE svg PUBLIC "-//W3C//DTD SVG 1.1//EN" "http://www.w3.org/Graphics/SVG/1.1/DTD/svg11.dtd">
<!-- Creator: CorelDRAW 2017 -->
<svg xmlns="http://www.w3.org/2000/svg" xml:space="preserve" width="199px" height="141px" version="1.1" style="shape-rendering:geometricPrecision; text-rendering:geometricPrecision; image-rendering:optimizeQuality; fill-rule:evenodd; clip-rule:evenodd"
viewBox="0 0 199 140.707"
 xmlns:xlink="http://www.w3.org/1999/xlink">
 <defs>
  <style type="text/css">
   <![CDATA[
    .fil0 {fill:none}
    .fil9 {fill:#000066}
    .fil8 {fill:#004CFE}
    .fil5 {fill:#2894ED}
    .fil7 {fill:#3A983D}
    .fil4 {fill:#666666}
    .fil6 {fill:#FB8F2F}
    .fil1 {fill:#000066;fill-rule:nonzero}
    .fil2 {fill:#3A983D;fill-rule:nonzero}
    .fil3 {fill:#666666;fill-rule:nonzero}
   ]]>
  </style>
 </defs>
 <g id="Capa_x0020_2">
  <metadata id="CorelCorpID_0Corel-Layer"/>
  <g id="_1952968533872">
   <rect class="fil0" width="199" height="140.707"/>
   <g>
    <g>
     <polygon class="fil1" points="12.189,106.778 12.189,93.407 20.38,93.407 20.38,96.343 15.743,96.343 15.743,98.662 20.115,98.662 20.115,101.523 15.743,101.523 15.743,106.778 "/>
     <path id="1" class="fil1" d="M28.497 100.981c-0.063,-0.524 -0.262,-0.945 -0.599,-1.262 -0.339,-0.318 -0.754,-0.477 -1.25,-0.477 -0.529,0 -0.953,0.143 -1.268,0.433 -0.312,0.29 -0.521,0.726 -0.627,1.306l3.744 0zm3.198 1.833l-7.013 0c0.006,0.71 0.19,1.259 0.548,1.645 0.362,0.387 0.87,0.58 1.528,0.58 0.495,0 0.91,-0.093 1.249,-0.277 0.337,-0.187 0.596,-0.462 0.773,-0.826l2.447 0.985c-0.293,0.707 -0.81,1.253 -1.552,1.636 -0.745,0.383 -1.655,0.577 -2.734,0.577 -1.608,0 -2.898,-0.446 -3.868,-1.338 -0.972,-0.894 -1.458,-2.069 -1.458,-3.531 0,-1.437 0.486,-2.631 1.455,-3.581 0.973,-0.951 2.201,-1.425 3.684,-1.425 1.528,0 2.734,0.48 3.616,1.444 0.882,0.963 1.325,2.281 1.325,3.955l0 0.156z"/>
     <path id="2" class="fil1" d="M33.58 106.778l0 -9.219 3.07 0 0 2.172c0.318,-0.795 0.748,-1.387 1.297,-1.783 0.549,-0.396 1.212,-0.595 1.992,-0.595 0.127,0 0.258,0.003 0.389,0.012 0.131,0.01 0.262,0.025 0.396,0.044l-0.318 2.955c-0.193,-0.066 -0.386,-0.112 -0.573,-0.144 -0.19,-0.028 -0.371,-0.043 -0.549,-0.043 -0.788,0 -1.396,0.243 -1.826,0.726 -0.427,0.483 -0.642,1.169 -0.642,2.057l0 3.818 -3.236 0z"/>
     <path id="3" class="fil1" d="M41.918 106.778l0 -9.219 2.98 0 0 1.87c0.43,-0.751 0.928,-1.3 1.496,-1.649 0.564,-0.346 1.243,-0.521 2.032,-0.521 0.598,0 1.128,0.097 1.592,0.287 0.465,0.193 0.845,0.468 1.135,0.829 0.246,0.309 0.418,0.689 0.521,1.132 0.102,0.445 0.155,1.109 0.155,1.991l0 5.28 -3.254 0 0 -4.94c0,-0.739 -0.121,-1.272 -0.361,-1.608 -0.24,-0.334 -0.624,-0.502 -1.153,-0.502 -0.677,0 -1.169,0.249 -1.481,0.748 -0.308,0.499 -0.464,1.309 -0.464,2.431l0 3.871 -3.198 0z"/>
     <path id="4" class="fil1" d="M61.155 102.159c0,-0.72 -0.19,-1.287 -0.574,-1.708 -0.383,-0.421 -0.907,-0.63 -1.57,-0.63 -0.664,0 -1.185,0.209 -1.565,0.627 -0.38,0.414 -0.57,0.988 -0.57,1.711 0,0.717 0.19,1.284 0.573,1.699 0.383,0.414 0.904,0.62 1.562,0.62 0.663,0 1.187,-0.206 1.57,-0.62 0.384,-0.415 0.574,-0.982 0.574,-1.699zm2.864 -4.6l0 9.219 -2.992 0 0 -1.496c-0.427,0.639 -0.904,1.107 -1.437,1.406 -0.533,0.296 -1.159,0.446 -1.876,0.446 -1.231,0 -2.213,-0.449 -2.952,-1.347 -0.735,-0.898 -1.103,-2.104 -1.103,-3.612 0,-1.506 0.386,-2.7 1.156,-3.588 0.77,-0.885 1.805,-1.328 3.108,-1.328 0.695,0 1.293,0.15 1.795,0.446 0.502,0.296 0.932,0.751 1.291,1.368l0 -1.514 3.01 0z"/>
     <path id="5" class="fil1" d="M66.472 106.778l0 -9.219 2.98 0 0 1.87c0.43,-0.751 0.929,-1.3 1.496,-1.649 0.564,-0.346 1.244,-0.521 2.032,-0.521 0.599,0 1.129,0.097 1.593,0.287 0.464,0.193 0.845,0.468 1.135,0.829 0.246,0.309 0.417,0.689 0.52,1.132 0.103,0.445 0.156,1.109 0.156,1.991l0 5.28 -3.254 0 0 -4.94c0,-0.739 -0.122,-1.272 -0.362,-1.608 -0.24,-0.334 -0.623,-0.502 -1.153,-0.502 -0.676,0 -1.169,0.249 -1.48,0.748 -0.309,0.499 -0.465,1.309 -0.465,2.431l0 3.871 -3.198 0z"/>
     <path id="6" class="fil1" d="M85.725 102.178c0,-0.717 -0.19,-1.284 -0.57,-1.699 -0.378,-0.414 -0.898,-0.62 -1.553,-0.62 -0.657,0 -1.175,0.206 -1.552,0.62 -0.377,0.415 -0.564,0.982 -0.564,1.699 0,0.723 0.187,1.29 0.561,1.702 0.374,0.411 0.892,0.617 1.555,0.617 0.655,0 1.175,-0.206 1.553,-0.621 0.38,-0.414 0.57,-0.981 0.57,-1.698zm2.886 -9.556l0 14.156 -2.995 0 0 -1.496c-0.415,0.62 -0.879,1.085 -1.396,1.39 -0.518,0.309 -1.091,0.462 -1.724,0.462 -1.297,0 -2.328,-0.449 -3.095,-1.344 -0.767,-0.894 -1.15,-2.101 -1.15,-3.615 0,-1.468 0.383,-2.656 1.147,-3.56 0.763,-0.904 1.758,-1.356 2.986,-1.356 0.779,0 1.415,0.141 1.904,0.421 0.489,0.281 0.926,0.751 1.309,1.409 -0.037,-0.218 -0.062,-0.468 -0.081,-0.745 -0.018,-0.277 -0.028,-0.58 -0.028,-0.901l0 -4.821 3.123 0z"/>
     <path id="7" class="fil1" d="M97.572 102.19c0,-0.685 -0.174,-1.228 -0.52,-1.624 -0.346,-0.395 -0.817,-0.595 -1.406,-0.595 -0.595,0 -1.066,0.2 -1.412,0.595 -0.343,0.396 -0.514,0.939 -0.514,1.624 0,0.689 0.171,1.231 0.511,1.624 0.34,0.393 0.813,0.589 1.415,0.589 0.595,0 1.066,-0.196 1.412,-0.589 0.343,-0.393 0.514,-0.935 0.514,-1.624zm3.235 0c0,0.664 -0.131,1.297 -0.389,1.892 -0.259,0.599 -0.633,1.135 -1.129,1.608 -0.498,0.474 -1.056,0.836 -1.673,1.079 -0.621,0.243 -1.275,0.365 -1.97,0.365 -0.708,0 -1.368,-0.122 -1.986,-0.365 -0.62,-0.243 -1.171,-0.605 -1.658,-1.079 -0.489,-0.464 -0.86,-0.994 -1.116,-1.592 -0.255,-0.602 -0.383,-1.238 -0.383,-1.908 0,-0.673 0.128,-1.309 0.38,-1.907 0.253,-0.596 0.624,-1.132 1.119,-1.609 0.48,-0.467 1.029,-0.822 1.649,-1.059 0.617,-0.237 1.281,-0.356 1.995,-0.356 0.714,0 1.378,0.119 1.992,0.356 0.614,0.237 1.165,0.592 1.651,1.059 0.502,0.484 0.879,1.023 1.135,1.618 0.256,0.595 0.383,1.231 0.383,1.898z"/>
     <path class="fil2" d="M124.09 106.778l-3.406 0 -0.783 -5.781c-0.056,-0.409 -0.106,-0.861 -0.152,-1.363 -0.044,-0.498 -0.088,-1.044 -0.122,-1.633 -0.087,0.567 -0.252,1.272 -0.502,2.12 -0.056,0.174 -0.096,0.305 -0.121,0.392l-1.814 6.265 -2.431 0 -1.814 -6.265c-0.025,-0.087 -0.063,-0.218 -0.113,-0.392 -0.255,-0.848 -0.42,-1.549 -0.501,-2.11 -0.035,0.505 -0.078,1.006 -0.128,1.502 -0.047,0.495 -0.106,0.991 -0.172,1.484l-0.785 5.781 -3.388 0 2.063 -13.371 3.606 0 2.017 6.894c0.013,0.05 0.037,0.128 0.075,0.24 0.187,0.614 0.305,1.141 0.355,1.581 0.025,-0.24 0.069,-0.502 0.137,-0.792 0.066,-0.29 0.159,-0.639 0.275,-1.047l2.035 -6.876 3.615 0 2.054 13.371z"/>
     <path id="1" class="fil2" d="M125.752 94.679c0,-0.493 0.174,-0.91 0.526,-1.256 0.35,-0.346 0.77,-0.521 1.266,-0.521 0.511,0 0.938,0.172 1.281,0.511 0.346,0.34 0.517,0.761 0.517,1.266 0,0.505 -0.174,0.932 -0.526,1.284 -0.35,0.352 -0.773,0.53 -1.272,0.53 -0.489,0 -0.91,-0.181 -1.262,-0.54 -0.353,-0.358 -0.53,-0.782 -0.53,-1.274zm0.168 12.099l0 -9.219 3.254 0 0 9.219 -3.254 0z"/>
     <path id="2" class="fil2" d="M131.68 106.778l0 -9.219 3.07 0 0 2.172c0.318,-0.795 0.748,-1.387 1.297,-1.783 0.548,-0.396 1.212,-0.595 1.991,-0.595 0.128,0 0.259,0.003 0.39,0.012 0.131,0.01 0.262,0.025 0.396,0.044l-0.318 2.955c-0.193,-0.066 -0.387,-0.112 -0.574,-0.144 -0.19,-0.028 -0.371,-0.043 -0.548,-0.043 -0.789,0 -1.397,0.243 -1.827,0.726 -0.427,0.483 -0.642,1.169 -0.642,2.057l0 3.818 -3.235 0z"/>
     <path id="3" class="fil2" d="M147.046 102.159c0,-0.72 -0.19,-1.287 -0.573,-1.708 -0.384,-0.421 -0.908,-0.63 -1.571,-0.63 -0.664,0 -1.185,0.209 -1.565,0.627 -0.38,0.414 -0.57,0.988 -0.57,1.711 0,0.717 0.19,1.284 0.573,1.699 0.383,0.414 0.904,0.62 1.562,0.62 0.663,0 1.187,-0.206 1.571,-0.62 0.383,-0.415 0.573,-0.982 0.573,-1.699zm2.864 -4.6l0 9.219 -2.992 0 0 -1.496c-0.427,0.639 -0.904,1.107 -1.437,1.406 -0.533,0.296 -1.159,0.446 -1.876,0.446 -1.231,0 -2.213,-0.449 -2.952,-1.347 -0.735,-0.898 -1.103,-2.104 -1.103,-3.612 0,-1.506 0.386,-2.7 1.156,-3.588 0.77,-0.885 1.805,-1.328 3.108,-1.328 0.695,0 1.293,0.15 1.795,0.446 0.502,0.296 0.932,0.751 1.291,1.368l0 -1.514 3.01 0z"/>
     <path id="4" class="fil2" d="M152.363 106.778l0 -9.219 2.98 0 0 1.87c0.43,-0.751 0.929,-1.3 1.496,-1.649 0.564,-0.346 1.244,-0.521 2.032,-0.521 0.599,0 1.129,0.097 1.593,0.287 0.464,0.193 0.845,0.468 1.135,0.829 0.246,0.309 0.417,0.689 0.52,1.132 0.103,0.445 0.156,1.109 0.156,1.991l0 5.28 -3.254 0 0 -4.94c0,-0.739 -0.122,-1.272 -0.362,-1.608 -0.24,-0.334 -0.623,-0.502 -1.153,-0.502 -0.676,0 -1.169,0.249 -1.48,0.748 -0.309,0.499 -0.465,1.309 -0.465,2.431l0 3.871 -3.198 0z"/>
     <path id="5" class="fil2" d="M171.616 102.178c0,-0.717 -0.19,-1.284 -0.57,-1.699 -0.378,-0.414 -0.898,-0.62 -1.553,-0.62 -0.657,0 -1.175,0.206 -1.552,0.62 -0.377,0.415 -0.564,0.982 -0.564,1.699 0,0.723 0.187,1.29 0.561,1.702 0.374,0.411 0.892,0.617 1.555,0.617 0.655,0 1.175,-0.206 1.553,-0.621 0.38,-0.414 0.57,-0.981 0.57,-1.698zm2.886 -9.556l0 14.156 -2.995 0 0 -1.496c-0.415,0.62 -0.879,1.085 -1.396,1.39 -0.518,0.309 -1.091,0.462 -1.724,0.462 -1.297,0 -2.328,-0.449 -3.095,-1.344 -0.767,-0.894 -1.15,-2.101 -1.15,-3.615 0,-1.468 0.383,-2.656 1.147,-3.56 0.764,-0.904 1.758,-1.356 2.986,-1.356 0.779,0 1.415,0.141 1.904,0.421 0.489,0.281 0.926,0.751 1.309,1.409 -0.037,-0.218 -0.062,-0.468 -0.081,-0.745 -0.018,-0.277 -0.028,-0.58 -0.028,-0.901l0 -4.821 3.123 0z"/>
     <path id="6" class="fil2" d="M183.946 102.159c0,-0.72 -0.19,-1.287 -0.573,-1.708 -0.384,-0.421 -0.907,-0.63 -1.571,-0.63 -0.664,0 -1.185,0.209 -1.565,0.627 -0.38,0.414 -0.57,0.988 -0.57,1.711 0,0.717 0.19,1.284 0.573,1.699 0.384,0.414 0.904,0.62 1.562,0.62 0.664,0 1.187,-0.206 1.571,-0.62 0.383,-0.415 0.573,-0.982 0.573,-1.699zm2.865 -4.6l0 9.219 -2.993 0 0 -1.496c-0.427,0.639 -0.903,1.107 -1.436,1.406 -0.533,0.296 -1.16,0.446 -1.877,0.446 -1.231,0 -2.213,-0.449 -2.951,-1.347 -0.736,-0.898 -1.104,-2.104 -1.104,-3.612 0,-1.506 0.387,-2.7 1.157,-3.588 0.769,-0.885 1.804,-1.328 3.107,-1.328 0.695,0 1.294,0.15 1.795,0.446 0.502,0.296 0.932,0.751 1.291,1.368l0 -1.514 3.011 0z"/>
    </g>
    <g>
     <path class="fil3" d="M45.573 124.684l-2.891 -6.728 1.095 0 1.45 3.45c0.086,0.199 0.157,0.385 0.213,0.554 0.056,0.171 0.099,0.332 0.133,0.484 0.037,-0.161 0.086,-0.329 0.144,-0.504 0.059,-0.173 0.129,-0.351 0.209,-0.534l1.446 -3.45 1.088 0 -2.887 6.728z"/>
     <polygon id="1" class="fil3" points="49.131,124.431 49.131,117.956 50.182,117.956 50.182,124.431 "/>
     <path id="2" class="fil3" d="M51.324 123.134l0.839 -0.388c0.08,0.289 0.227,0.509 0.439,0.66 0.212,0.152 0.483,0.228 0.814,0.228 0.314,0 0.561,-0.088 0.747,-0.261 0.184,-0.174 0.276,-0.406 0.276,-0.698 0,-0.38 -0.315,-0.719 -0.948,-1.017 -0.089,-0.044 -0.157,-0.077 -0.203,-0.096 -0.714,-0.349 -1.19,-0.663 -1.427,-0.945 -0.237,-0.282 -0.356,-0.626 -0.356,-1.032 0,-0.529 0.18,-0.956 0.538,-1.283 0.357,-0.328 0.828,-0.491 1.409,-0.491 0.477,0 0.877,0.092 1.198,0.276 0.322,0.185 0.544,0.449 0.668,0.793l-0.821 0.425c-0.13,-0.203 -0.272,-0.353 -0.428,-0.446 -0.155,-0.095 -0.333,-0.142 -0.534,-0.142 -0.282,0 -0.508,0.074 -0.674,0.222 -0.168,0.146 -0.251,0.344 -0.251,0.591 0,0.39 0.367,0.753 1.099,1.088 0.056,0.028 0.099,0.049 0.133,0.062 0.639,0.296 1.079,0.584 1.317,0.865 0.239,0.282 0.358,0.634 0.358,1.055 0,0.613 -0.193,1.1 -0.58,1.461 -0.386,0.361 -0.908,0.542 -1.566,0.542 -0.551,0 -1.002,-0.127 -1.356,-0.381 -0.351,-0.253 -0.582,-0.615 -0.691,-1.088z"/>
     <path id="3" class="fil3" d="M56.638 117.956l1.042 0 0 3.932c0,0.582 0.134,1.021 0.404,1.314 0.27,0.294 0.673,0.441 1.21,0.441 0.533,0 0.935,-0.147 1.205,-0.441 0.27,-0.293 0.404,-0.732 0.404,-1.314l0 -3.932 1.051 0 0 4.028c0,0.876 -0.221,1.532 -0.663,1.967 -0.442,0.434 -1.109,0.652 -2,0.652 -0.89,0 -1.554,-0.218 -1.993,-0.651 -0.44,-0.433 -0.66,-1.089 -0.66,-1.968l0 -4.028z"/>
     <path id="4" class="fil3" d="M64.613 121.886l1.805 0 -0.664 -1.476c-0.038,-0.094 -0.079,-0.202 -0.119,-0.324 -0.041,-0.123 -0.083,-0.259 -0.124,-0.409 -0.035,0.141 -0.073,0.273 -0.113,0.395 -0.04,0.122 -0.08,0.235 -0.121,0.338l-0.664 1.476zm2.91 2.545l-0.734 -1.667 -2.566 0 -0.751 1.667 -1.105 0 3.135 -6.728 3.131 6.728 -1.11 0z"/>
     <polygon id="5" class="fil3" points="69.242,124.431 69.242,117.956 70.292,117.956 70.292,123.489 72.646,123.489 72.646,124.431 "/>
     <polygon id="6" class="fil3" points="73.517,124.431 73.517,117.956 74.568,117.956 74.568,124.431 "/>
     <polygon id="7" class="fil3" points="75.42,124.431 78.716,118.853 75.973,118.853 75.973,117.956 80.334,117.956 77.068,123.489 80.374,123.489 80.374,124.431 "/>
     <path id="8" class="fil3" d="M82.666 121.886l1.805 0 -0.664 -1.476c-0.038,-0.094 -0.078,-0.202 -0.119,-0.324 -0.041,-0.123 -0.083,-0.259 -0.124,-0.409 -0.035,0.141 -0.072,0.273 -0.113,0.395 -0.039,0.122 -0.08,0.235 -0.121,0.338l-0.664 1.476zm2.91 2.545l-0.734 -1.667 -2.565 0 -0.752 1.667 -1.105 0 3.135 -6.728 3.132 6.728 -1.111 0z"/>
     <path id="9" class="fil3" d="M92.331 119.532c-0.297,-0.254 -0.613,-0.444 -0.943,-0.571 -0.332,-0.127 -0.681,-0.19 -1.046,-0.19 -0.706,0 -1.281,0.226 -1.725,0.681 -0.444,0.454 -0.666,1.041 -0.666,1.764 0,0.697 0.216,1.274 0.648,1.728 0.431,0.454 0.976,0.681 1.633,0.681 0.383,0 0.747,-0.068 1.094,-0.204 0.346,-0.136 0.678,-0.34 0.996,-0.614l0 1.189c-0.282,0.204 -0.59,0.356 -0.924,0.456 -0.333,0.101 -0.694,0.151 -1.082,0.151 -0.495,0 -0.952,-0.082 -1.372,-0.243 -0.421,-0.163 -0.789,-0.402 -1.107,-0.717 -0.316,-0.31 -0.557,-0.675 -0.728,-1.094 -0.169,-0.42 -0.253,-0.868 -0.253,-1.342 0,-0.476 0.084,-0.921 0.253,-1.337 0.171,-0.418 0.415,-0.784 0.737,-1.099 0.321,-0.318 0.689,-0.56 1.105,-0.723 0.415,-0.164 0.864,-0.246 1.347,-0.246 0.381,0 0.743,0.056 1.087,0.166 0.345,0.112 0.679,0.279 1.003,0.504l-0.057 1.06z"/>
     <polygon id="10" class="fil3" points="93.655,124.431 93.655,117.956 94.705,117.956 94.705,124.431 "/>
     <path id="11" class="fil3" d="M101.761 121.207c0,-0.328 -0.061,-0.638 -0.18,-0.933 -0.119,-0.294 -0.291,-0.557 -0.515,-0.786 -0.218,-0.228 -0.47,-0.402 -0.757,-0.524 -0.288,-0.122 -0.592,-0.184 -0.909,-0.184 -0.318,0 -0.621,0.06 -0.91,0.181 -0.287,0.121 -0.543,0.296 -0.766,0.527 -0.224,0.226 -0.396,0.487 -0.514,0.782 -0.117,0.294 -0.176,0.606 -0.176,0.937 0,0.327 0.059,0.637 0.176,0.928 0.118,0.291 0.29,0.552 0.514,0.782 0.223,0.231 0.478,0.406 0.765,0.527 0.285,0.12 0.59,0.181 0.911,0.181 0.316,0 0.615,-0.061 0.9,-0.181 0.284,-0.121 0.54,-0.296 0.766,-0.527 0.224,-0.23 0.396,-0.491 0.515,-0.783 0.119,-0.295 0.18,-0.603 0.18,-0.927zm1.095 0c0,0.46 -0.086,0.895 -0.258,1.304 -0.173,0.41 -0.424,0.776 -0.754,1.097 -0.332,0.322 -0.708,0.568 -1.128,0.738 -0.418,0.171 -0.857,0.257 -1.316,0.257 -0.466,0 -0.91,-0.086 -1.334,-0.258 -0.422,-0.174 -0.795,-0.418 -1.12,-0.737 -0.33,-0.321 -0.581,-0.685 -0.751,-1.093 -0.171,-0.406 -0.257,-0.842 -0.257,-1.308 0,-0.463 0.086,-0.9 0.257,-1.309 0.17,-0.41 0.421,-0.777 0.751,-1.101 0.331,-0.322 0.705,-0.566 1.123,-0.734 0.418,-0.167 0.862,-0.252 1.331,-0.252 0.465,0 0.906,0.085 1.324,0.252 0.416,0.168 0.791,0.412 1.12,0.734 0.33,0.327 0.581,0.697 0.754,1.107 0.172,0.412 0.258,0.846 0.258,1.303zm-4.084 -3.885l0.843 -1.204 0.996 0 -1.294 1.204 -0.545 0z"/>
     <path id="12" class="fil3" d="M104.062 124.431l0 -6.728 4.114 3.955c0.112,0.112 0.225,0.231 0.341,0.358 0.115,0.127 0.236,0.27 0.363,0.428l0 -4.488 0.969 0 0 6.728 -4.195 -4.029c-0.111,-0.111 -0.22,-0.225 -0.324,-0.346 -0.106,-0.121 -0.204,-0.248 -0.299,-0.38l0 4.502 -0.969 0z"/>
     <path id="13" class="fil3" d="M115.119 123.48l0.886 0c0.486,0 0.851,-0.032 1.094,-0.097 0.244,-0.065 0.456,-0.175 0.635,-0.327 0.245,-0.21 0.429,-0.47 0.551,-0.782 0.122,-0.311 0.184,-0.673 0.184,-1.085 0,-0.414 -0.062,-0.774 -0.184,-1.085 -0.122,-0.313 -0.306,-0.572 -0.551,-0.782 -0.182,-0.152 -0.401,-0.263 -0.656,-0.328 -0.255,-0.064 -0.655,-0.096 -1.199,-0.096l-0.38 0 -0.38 0 0 4.582zm-1.051 0.951l0 -6.475 1.418 0c0.923,0 1.572,0.047 1.949,0.139 0.376,0.094 0.705,0.249 0.989,0.466 0.374,0.287 0.658,0.654 0.851,1.102 0.193,0.448 0.29,0.96 0.29,1.535 0,0.575 -0.097,1.083 -0.29,1.527 -0.193,0.444 -0.477,0.811 -0.851,1.1 -0.284,0.218 -0.605,0.373 -0.967,0.467 -0.361,0.092 -0.924,0.139 -1.688,0.139l-0.283 0 -1.418 0z"/>
     <polygon id="14" class="fil3" points="120.771,124.431 120.771,117.956 124.384,117.956 124.384,118.853 121.821,118.853 121.821,120.473 124.384,120.473 124.384,121.397 121.821,121.397 121.821,123.489 124.384,123.489 124.384,124.431 "/>
     <path id="15" class="fil3" d="M129.373 123.48l0.886 0c0.486,0 0.852,-0.032 1.094,-0.097 0.245,-0.065 0.456,-0.175 0.636,-0.327 0.244,-0.21 0.428,-0.47 0.551,-0.782 0.122,-0.311 0.184,-0.673 0.184,-1.085 0,-0.414 -0.062,-0.774 -0.184,-1.085 -0.123,-0.313 -0.307,-0.572 -0.551,-0.782 -0.183,-0.152 -0.402,-0.263 -0.657,-0.328 -0.255,-0.064 -0.655,-0.096 -1.198,-0.096l-0.38 0 -0.381 0 0 4.582zm-1.05 0.951l0 -6.475 1.417 0c0.924,0 1.573,0.047 1.95,0.139 0.376,0.094 0.705,0.249 0.989,0.466 0.374,0.287 0.658,0.654 0.851,1.102 0.193,0.448 0.29,0.96 0.29,1.535 0,0.575 -0.097,1.083 -0.29,1.527 -0.193,0.444 -0.477,0.811 -0.851,1.1 -0.284,0.218 -0.606,0.373 -0.968,0.467 -0.361,0.092 -0.923,0.139 -1.687,0.139l-0.284 0 -1.417 0z"/>
     <path id="16" class="fil3" d="M136.234 121.886l1.805 0 -0.664 -1.476c-0.037,-0.094 -0.078,-0.202 -0.119,-0.324 -0.041,-0.123 -0.083,-0.259 -0.124,-0.409 -0.034,0.141 -0.072,0.273 -0.113,0.395 -0.039,0.122 -0.08,0.235 -0.121,0.338l-0.664 1.476zm2.91 2.545l-0.733 -1.667 -2.566 0 -0.752 1.667 -1.104 0 3.134 -6.728 3.132 6.728 -1.111 0z"/>
     <polygon id="17" class="fil3" points="142.46,118.853 142.46,124.431 141.409,124.431 141.409,118.853 139.689,118.853 139.689,117.956 144.171,117.956 144.171,118.853 "/>
     <path id="18" class="fil3" d="M150.195 121.207c0,-0.328 -0.061,-0.638 -0.18,-0.933 -0.119,-0.294 -0.291,-0.557 -0.515,-0.786 -0.219,-0.228 -0.471,-0.402 -0.757,-0.524 -0.289,-0.122 -0.592,-0.184 -0.909,-0.184 -0.318,0 -0.622,0.06 -0.91,0.181 -0.287,0.121 -0.543,0.296 -0.767,0.527 -0.223,0.226 -0.395,0.487 -0.513,0.782 -0.117,0.294 -0.176,0.606 -0.176,0.937 0,0.327 0.059,0.637 0.176,0.928 0.118,0.291 0.29,0.552 0.513,0.782 0.224,0.231 0.479,0.406 0.766,0.527 0.285,0.12 0.59,0.181 0.911,0.181 0.316,0 0.614,-0.061 0.9,-0.181 0.283,-0.121 0.54,-0.296 0.766,-0.527 0.224,-0.23 0.396,-0.491 0.515,-0.783 0.119,-0.295 0.18,-0.603 0.18,-0.927zm1.095 0c0,0.46 -0.086,0.895 -0.258,1.304 -0.173,0.41 -0.424,0.776 -0.754,1.097 -0.333,0.322 -0.708,0.568 -1.128,0.738 -0.418,0.171 -0.857,0.257 -1.316,0.257 -0.466,0 -0.91,-0.086 -1.334,-0.258 -0.423,-0.174 -0.795,-0.418 -1.12,-0.737 -0.33,-0.321 -0.581,-0.685 -0.751,-1.093 -0.171,-0.406 -0.257,-0.842 -0.257,-1.308 0,-0.463 0.086,-0.9 0.257,-1.309 0.17,-0.41 0.421,-0.777 0.751,-1.101 0.331,-0.322 0.705,-0.566 1.123,-0.734 0.418,-0.167 0.862,-0.252 1.331,-0.252 0.465,0 0.906,0.085 1.324,0.252 0.416,0.168 0.791,0.412 1.12,0.734 0.33,0.327 0.581,0.697 0.754,1.107 0.172,0.412 0.258,0.846 0.258,1.303z"/>
     <path id="19" class="fil3" d="M152.125 123.134l0.839 -0.388c0.08,0.289 0.226,0.509 0.439,0.66 0.211,0.152 0.483,0.228 0.814,0.228 0.314,0 0.561,-0.088 0.747,-0.261 0.184,-0.174 0.276,-0.406 0.276,-0.698 0,-0.38 -0.316,-0.719 -0.948,-1.017 -0.089,-0.044 -0.157,-0.077 -0.204,-0.096 -0.714,-0.349 -1.189,-0.663 -1.426,-0.945 -0.237,-0.282 -0.356,-0.626 -0.356,-1.032 0,-0.529 0.18,-0.956 0.537,-1.283 0.358,-0.328 0.829,-0.491 1.41,-0.491 0.477,0 0.877,0.092 1.198,0.276 0.322,0.185 0.543,0.449 0.667,0.793l-0.821 0.425c-0.13,-0.203 -0.271,-0.353 -0.427,-0.446 -0.155,-0.095 -0.333,-0.142 -0.534,-0.142 -0.282,0 -0.509,0.074 -0.675,0.222 -0.167,0.146 -0.25,0.344 -0.25,0.591 0,0.39 0.366,0.753 1.098,1.088 0.056,0.028 0.1,0.049 0.133,0.062 0.64,0.296 1.079,0.584 1.318,0.865 0.238,0.282 0.357,0.634 0.357,1.055 0,0.613 -0.193,1.1 -0.579,1.461 -0.386,0.361 -0.909,0.542 -1.567,0.542 -0.551,0 -1.002,-0.127 -1.355,-0.381 -0.352,-0.253 -0.582,-0.615 -0.691,-1.088z"/>
     <g>
      <rect class="fil4" x="20.61" y="120.871" width="18.614" height="0.709"/>
      <rect class="fil4" x="159.775" y="120.871" width="18.614" height="0.709"/>
     </g>
    </g>
    <g>
     <path class="fil5" d="M50.672 39.402c5.683,-9.338 15.862,-15.638 27.532,-15.891l0 17.027c-5.372,0.241 -10.055,3.123 -12.784,7.379l-14.748 -8.515z"/>
     <polygon class="fil6" points="112.129,33.687 137.399,19.354 138.747,21.731 113.478,36.065 "/>
     <path class="fil7" d="M48.711 69.984c-1.824,-4.101 -2.839,-8.642 -2.839,-13.42 0,-5.762 1.476,-11.179 4.068,-15.896l14.747 8.515c-1.147,2.209 -1.796,4.719 -1.796,7.381 0,1.12 0.115,2.213 0.333,3.268l-14.513 10.152z"/>
     <path class="fil5" d="M88.054 47.469c-7.598,5.315 -15.196,10.629 -22.793,15.943 -3.693,2.582 -10.512,8.631 -17.225,8.712l38.451 -26.895 1.567 2.24z"/>
     <path class="fil6" d="M79.666 23.511c10.004,0.217 18.911,4.878 24.831,12.086l-14.089 6.544c-1.146,-0.978 -2.633,-1.569 -4.257,-1.569 -0.97,0 -1.891,0.21 -2.72,0.588 -1.202,-0.35 -2.463,-0.564 -3.765,-0.622l0 -17.027z"/>
     <polygon class="fil7" points="115.808,34.865 85.487,48.948 84.335,46.469 114.657,32.386 "/>
     <polygon class="fil6" points="127.155,31.213 141.338,31.213 141.338,81.915 138.22,81.915 127.155,79.951 "/>
     <rect class="fil7" x="107.3" y="44.332" width="14.182" height="35.633"/>
     <rect class="fil8" x="87.445" y="55.855" width="14.182" height="24.465"/>
     <rect class="fil5" x="67.589" y="63.655" width="14.182" height="16.487"/>
     <path class="fil9" d="M99.5 77.483c23.337,0 45.71,3.21 66.43,9.091l0 0c-20.72,-4.046 -43.093,-6.254 -66.43,-6.254 -23.337,0 -45.71,2.208 -66.43,6.254l0 0c20.72,-5.881 43.093,-9.091 66.43,-9.091z"/>
     <circle class="fil5" cx="86.151" cy="47.133" r="5.194"/>
     <circle class="fil7" cx="113.993" cy="34.201" r="5.194"/>
     <circle class="fil6" cx="136.884" cy="21.217" r="5.194"/>
    </g>
   </g>
  </g>
 </g>
</svg>
